<mxfile host="app.diagrams.net" agent="Mozilla/5.0 (Windows NT 10.0; Win64; x64) AppleWebKit/537.36 (KHTML, like Gecko) Chrome/135.0.0.0 Safari/537.36 Edg/135.0.0.0" version="26.2.12">
  <diagram id="07fea595-8f29-1299-0266-81d95cde20df" name="Page-1">
    <mxGraphModel dx="1420" dy="725" grid="1" gridSize="10" guides="1" tooltips="1" connect="1" arrows="1" fold="1" page="1" pageScale="1" pageWidth="1169" pageHeight="827" background="none" math="0" shadow="0">
      <root>
        <mxCell id="0" />
        <mxCell id="1" parent="0" />
        <mxCell id="UQpHlRdYAwQzyCM8nYBO-667" value="&lt;ul&gt;&lt;li&gt;Email&lt;/li&gt;&lt;li&gt;Logging&lt;/li&gt;&lt;/ul&gt;" style="rounded=1;whiteSpace=wrap;html=1;align=left;fillColor=#b0e3e6;strokeColor=#0e8088;" vertex="1" parent="1">
          <mxGeometry x="700" y="510" width="230" height="141" as="geometry" />
        </mxCell>
        <mxCell id="UQpHlRdYAwQzyCM8nYBO-666" value="&lt;ul&gt;&lt;li&gt;Unit&lt;/li&gt;&lt;li&gt;Integration&lt;/li&gt;&lt;/ul&gt;" style="rounded=1;whiteSpace=wrap;html=1;align=left;fillColor=#b0e3e6;strokeColor=#0e8088;" vertex="1" parent="1">
          <mxGeometry x="260" y="510" width="230" height="141" as="geometry" />
        </mxCell>
        <mxCell id="UQpHlRdYAwQzyCM8nYBO-665" value="&lt;ul&gt;&lt;li&gt;REST API&lt;/li&gt;&lt;/ul&gt;" style="rounded=1;whiteSpace=wrap;html=1;align=left;fillColor=#b0e3e6;strokeColor=#0e8088;" vertex="1" parent="1">
          <mxGeometry x="670" y="169" width="230" height="141" as="geometry" />
        </mxCell>
        <mxCell id="UQpHlRdYAwQzyCM8nYBO-664" value="&lt;ul&gt;&lt;li&gt;Blazor&lt;/li&gt;&lt;li&gt;MAUI&lt;/li&gt;&lt;li&gt;Angular&lt;/li&gt;&lt;li&gt;Etc...&lt;/li&gt;&lt;/ul&gt;" style="rounded=1;whiteSpace=wrap;html=1;align=left;fillColor=#b0e3e6;strokeColor=#0e8088;" vertex="1" parent="1">
          <mxGeometry x="260" y="169" width="230" height="141" as="geometry" />
        </mxCell>
        <mxCell id="UQpHlRdYAwQzyCM8nYBO-658" value="" style="shape=sumEllipse;perimeter=ellipsePerimeter;whiteSpace=wrap;html=1;backgroundOutline=1;direction=west;rotation=45;fillColor=#1ba1e2;strokeColor=#006EAF;fontColor=#ffffff;" vertex="1" parent="1">
          <mxGeometry x="400" y="229" width="370" height="370" as="geometry" />
        </mxCell>
        <mxCell id="UQpHlRdYAwQzyCM8nYBO-657" value="" style="ellipse;whiteSpace=wrap;html=1;aspect=fixed;fillColor=#d0cee2;strokeColor=#56517e;" vertex="1" parent="1">
          <mxGeometry x="511" y="340" width="148" height="148" as="geometry" />
        </mxCell>
        <mxCell id="UQpHlRdYAwQzyCM8nYBO-659" value="Core&lt;br&gt;&lt;br&gt;&lt;br&gt;Entities&lt;br&gt;&lt;br&gt;Application Interfaces" style="text;html=1;align=center;verticalAlign=middle;whiteSpace=wrap;rounded=0;" vertex="1" parent="1">
          <mxGeometry x="555" y="399" width="60" height="30" as="geometry" />
        </mxCell>
        <mxCell id="UQpHlRdYAwQzyCM8nYBO-660" value="UI" style="text;html=1;align=center;verticalAlign=middle;whiteSpace=wrap;rounded=0;" vertex="1" parent="1">
          <mxGeometry x="470" y="310" width="60" height="30" as="geometry" />
        </mxCell>
        <mxCell id="UQpHlRdYAwQzyCM8nYBO-661" value="API" style="text;html=1;align=center;verticalAlign=middle;whiteSpace=wrap;rounded=0;" vertex="1" parent="1">
          <mxGeometry x="640" y="310" width="60" height="30" as="geometry" />
        </mxCell>
        <mxCell id="UQpHlRdYAwQzyCM8nYBO-662" value="Tests" style="text;html=1;align=center;verticalAlign=middle;whiteSpace=wrap;rounded=0;" vertex="1" parent="1">
          <mxGeometry x="470" y="480" width="60" height="30" as="geometry" />
        </mxCell>
        <mxCell id="UQpHlRdYAwQzyCM8nYBO-663" value="Infrastructure" style="text;html=1;align=center;verticalAlign=middle;whiteSpace=wrap;rounded=0;" vertex="1" parent="1">
          <mxGeometry x="640" y="480" width="60" height="30" as="geometry" />
        </mxCell>
      </root>
    </mxGraphModel>
  </diagram>
</mxfile>
